HIERARCHY
ROOT Hips
{
 OFFSET 0.000000 0.000000 0.000000
 CHANNELS 6 Xposition Yposition Zposition Yrotation Xrotation Zrotation
 JOINT Chest
 {
  OFFSET 0.000000 10.080317 -0.001081
  CHANNELS 3 Yrotation Xrotation Zrotation
  JOINT Chest2
  {
   OFFSET 0.000000 11.096852 0.001963
   CHANNELS 3 Yrotation Xrotation Zrotation
   JOINT Chest3
   {
    OFFSET 0.000000 10.026525 0.000000
    CHANNELS 3 Yrotation Xrotation Zrotation
    JOINT Chest4
    {
     OFFSET 0.000000 10.026525 0.000000
     CHANNELS 3 Yrotation Xrotation Zrotation
     JOINT Neck
     {
      OFFSET 0.000000 14.108171 0.000000
      CHANNELS 3 Yrotation Xrotation Zrotation
      JOINT Head
      {
       OFFSET 0.000000 9.333493 0.004668
       CHANNELS 3 Yrotation Xrotation Zrotation
       End Site
       {
        OFFSET 0.000000 17.851786 0.002438
       }
      }
     }
     JOINT RightCollar
     {
      OFFSET -3.071622 7.873185 0.000000
      CHANNELS 3 Yrotation Xrotation Zrotation
      JOINT RightShoulder
      {
       OFFSET -14.378659 0.000000 0.000000
       CHANNELS 3 Yrotation Xrotation Zrotation
       JOINT RightElbow
       {
        OFFSET -30.778728 0.000000 0.000000
        CHANNELS 3 Yrotation Xrotation Zrotation
        JOINT RightWrist
        {
         OFFSET -25.164217 0.000000 0.000000
         CHANNELS 3 Yrotation Xrotation Zrotation
         End Site
         {
          OFFSET -18.796788 0.000000 0.000000
         }
        }
       }
      }
     }
     JOINT LeftCollar
     {
      OFFSET 3.071622 7.873185 0.000000
      CHANNELS 3 Yrotation Xrotation Zrotation
      JOINT LeftShoulder
      {
       OFFSET 14.378659 0.000000 0.000000
       CHANNELS 3 Yrotation Xrotation Zrotation
       JOINT LeftElbow
       {
        OFFSET 30.778728 0.000000 0.000000
        CHANNELS 3 Yrotation Xrotation Zrotation
        JOINT LeftWrist
        {
         OFFSET 25.164217 0.000000 0.000000
         CHANNELS 3 Yrotation Xrotation Zrotation
         End Site
         {
          OFFSET 18.796788 0.000000 0.000000
         }
        }
       }
      }
     }
    }
   }
  }
 }
 JOINT RightHip
 {
  OFFSET -8.194923 0.005295 0.000540
  CHANNELS 3 Yrotation Xrotation Zrotation
  JOINT RightKnee
  {
   OFFSET 0.000000 -42.473320 -0.000511
   CHANNELS 3 Yrotation Xrotation Zrotation
   JOINT RightAnkle
   {
    OFFSET 0.000000 -41.474259 -0.000865
    CHANNELS 3 Yrotation Xrotation Zrotation
    JOINT RightToe
    {
     OFFSET 0.000000 -7.354994 16.712725
     CHANNELS 3 Yrotation Xrotation Zrotation
     End Site
     {
      OFFSET 0.000000 -1.553903 6.764158
     }
    }
   }
  }
 }
 JOINT LeftHip
 {
  OFFSET 8.194923 0.005295 0.000540
  CHANNELS 3 Yrotation Xrotation Zrotation
  JOINT LeftKnee
  {
   OFFSET 0.000000 -42.473320 -0.000511
   CHANNELS 3 Yrotation Xrotation Zrotation
   JOINT LeftAnkle
   {
    OFFSET 0.000000 -41.474259 -0.000865
    CHANNELS 3 Yrotation Xrotation Zrotation
    JOINT LeftToe
    {
     OFFSET 0.000000 -7.354994 16.712725
     CHANNELS 3 Yrotation Xrotation Zrotation
     End Site
     {
      OFFSET 0.000000 -1.553903 6.764158
     }
    }
   }
  }
 }
}
MOTION
Frames: 5
Frame Time: 0.016667
-48.423604 76.179246 -65.690589 -14.274994 1.980067 0.828044 -1.174033 2.565198 3.133301 -0.755478 1.507085 1.038461 -0.755478 1.507085 1.038461 -0.569139 1.129036 0.780666 -17.204684 15.095398 1.965436 -32.775100 -5.761458 9.717253 1.844717 7.022628 17.379035 39.409731 1.166975 58.767352 17.677998 12.632999 -2.320110 6.178130 0.685976 -14.153742 -15.838943 16.734783 -13.071363 -30.086255 9.566762 -46.424361 -30.622357 -14.129817 -4.426993 15.033490 -9.579094 10.703461 -12.747845 -18.034311 -31.368981 3.833828 -7.013089 3.121812 10.256459 14.509180 29.973314 -0.743088 1.935435 -0.024909 13.826631 -0.182147 35.633863 2.939415 14.207256 1.205298 -7.336915 -17.369612 -33.858532 -0.655079 -1.257154 -0.131939
-48.408743 76.182130 -65.610728 -14.210845 1.991748 0.832400 -1.200267 2.582071 3.166345 -0.762049 1.511131 1.052253 -0.762049 1.511131 1.052253 -0.574108 1.132042 0.791030 -17.101704 15.126462 1.925872 -32.564884 -5.741054 9.605348 1.814578 6.961245 17.345202 39.496353 1.333809 58.800408 17.898155 12.850633 -2.169824 6.177354 0.685395 -14.106464 -15.879114 16.680428 -13.049825 -30.113511 9.588421 -46.408205 -30.800794 -14.159516 -4.380165 15.017999 -9.570258 10.705522 -12.791375 -17.993560 -31.418631 3.812174 -6.995897 3.107990 10.256734 14.425992 30.023093 -0.755942 1.970740 -0.090639 13.868431 -0.190803 35.626928 2.913624 14.181137 1.204243 -7.354584 -17.392172 -33.902009 -0.656858 -1.242198 -0.123796
-48.396832 76.180724 -65.540612 -14.093817 1.986358 0.830606 -1.260412 2.598747 3.202985 -0.774664 1.505206 1.062740 -0.774664 1.505206 1.062740 -0.583584 1.127563 0.798919 -16.883466 15.239686 1.842406 -32.109878 -5.610908 9.356095 1.810897 6.920540 17.334749 39.547930 1.480812 58.836998 18.073498 13.019560 -2.008358 6.178157 0.706435 -14.070650 -15.922907 16.642548 -13.025996 -30.157836 9.645381 -46.379106 -30.986909 -14.192291 -4.336401 15.019216 -9.554814 10.697290 -12.952290 -17.923847 -31.442082 3.800181 -7.058253 3.099737 10.273438 14.394491 30.085443 -0.745361 2.004575 -0.154801 13.871749 -0.228248 35.635104 2.884071 14.172602 1.230764 -7.497109 -17.459441 -33.933548 -0.676052 -1.246582 -0.120849
-48.393169 76.178089 -65.489670 -13.992302 2.029949 0.836337 -1.293040 2.555255 3.231400 -0.790268 1.485420 1.071873 -0.790268 1.485420 1.071873 -0.595276 1.112686 0.805782 -16.470055 15.471220 1.717131 -31.257299 -5.320395 8.940333 1.807034 6.900547 17.332315 39.587564 1.576297 58.895935 18.109277 13.169686 -1.884155 6.170886 0.714746 -14.029490 -15.938535 16.623321 -13.034175 -30.201971 9.723744 -46.323304 -31.136475 -14.171594 -4.348746 15.023758 -9.530736 10.682744 -13.081503 -17.895924 -31.464265 3.759417 -7.143075 3.100934 10.317845 14.394290 30.172565 -0.755979 2.026139 -0.228397 13.860655 -0.312873 35.622660 2.875366 14.192083 1.247505 -7.573414 -17.515589 -33.982595 -0.677429 -1.233228 -0.112090
-48.390927 76.177947 -65.432787 -13.899584 2.040036 0.851778 -1.330406 2.527310 3.238393 -0.794121 1.460463 1.079415 -0.794121 1.460463 1.079415 -0.598141 1.093951 0.811417 -15.817984 15.836604 1.555407 -29.929308 -4.842848 8.353374 1.801455 6.898806 17.358921 39.614562 1.618028 58.961140 18.010107 13.238530 -1.811862 6.157360 0.719767 -13.988484 -15.976403 16.592431 -13.039884 -30.288284 9.822010 -46.263231 -31.191948 -14.128218 -4.390442 15.033174 -9.512154 10.673770 -13.163633 -17.830147 -31.535888 3.678286 -7.206087 3.141703 10.386853 14.389988 30.245474 -0.769678 2.031714 -0.287699 13.780815 -0.289036 35.615218 2.888544 14.185959 1.242979 -7.586268 -17.541531 -34.018558 -0.689708 -1.246797 -0.118088
